<?xml version="1.0" standalone="no"?><!DOCTYPE svg PUBLIC "-//W3C//DTD SVG 1.1//EN" "http://www.w3.org/Graphics/SVG/1.1/DTD/svg11.dtd"><svg t="1721819960834" class="icon" viewBox="0 0 1024 1024" version="1.1" xmlns="http://www.w3.org/2000/svg" p-id="3646" xmlns:xlink="http://www.w3.org/1999/xlink" width="200" height="200"><path d="M512 1024C229.222 1024 0 794.778 0 512S229.222 0 512 0s512 229.222 512 512-229.222 512-512 512z m17.067-413.525c34.85 4.352 68.778 5.12 102.741 2.099 23.04-2.048 44.817-8.363 64.17-21.914 38.213-26.794 49.784-85.197 24.252-123.05-14.626-21.71-36.812-30.345-60.757-35.5-35.055-7.543-70.451-5.75-105.847-3.412-5.667 0.358-6.759 3.072-7.237 8.209-3.072 32.682-6.536 65.314-9.813 97.962-2.509 24.815-4.932 49.63-7.51 75.606z m53.401-33.929c1.963-20.907 3.635-39.339 5.427-57.77 1.554-15.907 3.414-31.779 4.728-47.702 0.358-4.284 1.553-6.656 5.956-6.383 15.616 1.041 31.71 0.034 46.729 3.652 36.488 8.824 48.725 54.307 23.347 83.03-15.82 17.903-36.762 23.586-59.256 25.088-8.465 0.546-17.015 0.085-26.93 0.085zM512 434.296c-2.185-0.65-3.533-1.178-4.932-1.434-37.718-6.878-75.69-8.329-113.647-2.816-20.975 3.038-41.011 9.489-57.48 23.33-22.99 19.32-21.641 46.848 4.402 62.003 13.056 7.595 28.024 12.51 42.599 17.289 14.08 4.608 28.996 6.826 43.144 11.264 12.596 3.925 14.012 14.319 3.584 22.306-3.345 2.56-7.44 5.086-11.537 5.751-11.195 1.826-22.698 4.386-33.826 3.567-24.098-1.775-48.042-5.461-72.55-8.43-1.366 10.615-2.936 23.09-4.557 35.942 4.181 1.365 7.68 2.73 11.264 3.618 33.946 8.5 68.386 9.608 102.912 5.12 20.087-2.611 39.475-7.902 56.695-19.03 28.604-18.483 36.694-57.19-4.676-75.383-14.506-6.383-30.19-10.41-45.482-15.087-11.418-3.481-23.314-5.615-34.526-9.523-9.78-3.413-11.145-12.203-3.038-18.398 4.659-3.55 10.718-6.997 16.384-7.373a480.853 480.853 0 0 1 53.384-0.853c15.377 0.7 30.652 3.55 46.49 5.53L512 434.295z m257.143 2.047l-18.21 177.955h54.153c4.779-45.637 9.71-90.727 14.063-135.885 0.614-6.366 2.355-8.84 8.687-9.011 11.434-0.273 22.886-1.98 34.287-1.57 23.722 0.853 42.393 9.727 38.4 43.263-2.902 24.27-5.598 48.572-8.244 72.875-1.092 10.07-1.826 20.19-2.73 30.413h55.33c3.584-35.26 7.987-70.059 10.496-104.994 3.413-47.463-17.766-73.319-64.683-80.214-40.96-6.007-81.34-0.34-121.549 7.134zM285.645 570.948c-8.738 1.297-16.384 2.8-24.098 3.482-25.652 2.236-51.32 3.942-76.305-4.267-13.91-4.59-24.679-12.578-29.799-25.958-7.902-20.702 0.888-47.104 19.832-60.314 17.374-12.117 37.717-15.923 58.453-15.923 22.545-0.017 45.09 2.423 68.233 3.84l5.239-39.51c-15.07-1.723-29.491-3.925-43.998-4.915-41.011-2.798-80.64 2.612-117.47 20.463-30.02 14.558-52.053 36.011-58.675 68.13-7.85 38.145 11.537 69.496 51.763 85.846 19.15 7.765 39.288 12.51 60.007 12.595 24.746 0.102 49.493-1.57 74.206-2.952 3.106-0.171 8.311-2.902 8.67-5.035 1.98-11.554 2.73-23.28 3.942-35.465z" fill="#2c2c2c" p-id="3647"></path></svg>