<?xml version="1.0" standalone="no"?><!DOCTYPE svg PUBLIC "-//W3C//DTD SVG 1.1//EN" "http://www.w3.org/Graphics/SVG/1.1/DTD/svg11.dtd"><svg t="1723018985767" class="icon" viewBox="0 0 1024 1024" version="1.1" xmlns="http://www.w3.org/2000/svg" p-id="4421" xmlns:xlink="http://www.w3.org/1999/xlink" width="200" height="200"><path d="M812 896h-600A100.144 100.144 0 0 1 112 795.744v-451.2a100.128 100.128 0 0 1 100-100.272h150v-50.128A50.064 50.064 0 0 1 412 144h200a50.064 50.064 0 0 1 50 50.128v50.128h150A100.128 100.128 0 0 1 912 344.544v451.2A100.144 100.144 0 0 1 812 896z m-200-676.8a25.04 25.04 0 0 0-24.992-25.072h-150A25.04 25.04 0 0 0 412 219.2v25.072h200V219.2z m250 125.328A50.064 50.064 0 0 0 812 294.4h-600a50.064 50.064 0 0 0-50 50.128v125.328h700v-125.312z m-400 200.528a50 50 0 1 0 93.072-25.056h-86.128a49.712 49.712 0 0 0-6.944 25.072z m400-25.072H608.464a100 100 0 1 1-192.928 0H162v275.76a50.064 50.064 0 0 0 50 50.128h600a50.064 50.064 0 0 0 50-50.128V520z" p-id="4422" fill="#707070"></path></svg>