<?xml version="1.0" standalone="no"?><!DOCTYPE svg PUBLIC "-//W3C//DTD SVG 1.1//EN" "http://www.w3.org/Graphics/SVG/1.1/DTD/svg11.dtd"><svg t="1723212377417" class="icon" viewBox="0 0 1194 1024" version="1.1" xmlns="http://www.w3.org/2000/svg" p-id="7832" xmlns:xlink="http://www.w3.org/1999/xlink" width="233.203125" height="200"><path d="M1050.863439 291.522106c0-11.26364-0.204793-22.322486-0.682645-33.313067a498.296588 498.296588 0 0 0 118.848464-131.477393c-43.347946 20.069758-89.528868 33.074142-136.76789 38.501168 49.184559-31.162736 86.900686-80.961676 104.717715-140.761362a449.931202 449.931202 0 0 1-151.137563 60.004479C942.391177 33.618892 880.509424 1.261528 812.006016 0.032767c-131.511525-2.252728-238.106514 112.124412-238.106514 255.41156 0 20.376948 2.047934 40.139516 6.177936 59.219438-198.001131-13.140913-373.474982-119.223918-490.821628-279.133467a277.631649 277.631649 0 0 0-32.254967 131.067806c0 90.791761 42.016789 171.446247 105.912344 219.060723a223.12246 223.12246 0 0 1-107.857882-33.995712v3.310827c0 126.86954 82.08804 233.157339 191.038153 257.971478a218.958327 218.958327 0 0 1-62.700927 8.771986 211.142043 211.142043 0 0 1-44.7815-5.051571c30.275298 103.966806 118.234083 179.876911 222.405683 182.436828C279.543055 868.698303 176.805009 910.271373 65.363242 909.998315c-19.216452 0-38.22811-1.331157-56.830182-3.754547C113.933421 980.652054 239.062217 1024 373.577379 1024c437.848389 0.102397 677.28606-392.17945 677.28606-732.477894z" fill="#ffffff" p-id="7833"></path></svg>