<?xml version="1.0" standalone="no"?><!DOCTYPE svg PUBLIC "-//W3C//DTD SVG 1.1//EN" "http://www.w3.org/Graphics/SVG/1.1/DTD/svg11.dtd"><svg t="1739042095672" class="icon" viewBox="0 0 1024 1024" version="1.1" xmlns="http://www.w3.org/2000/svg" p-id="6167" xmlns:xlink="http://www.w3.org/1999/xlink" width="200" height="200"><path d="M881.013969 895.113067h-57.73587v-99.233527c0-2.563928 0-5.096203-0.094961-7.533519v-0.538108c0-1.044563 0-1.899206-0.09496-2.975423-3.735106-117.054413-128.291383-218.946829-222.428707-275.986323 93.504255-56.628 217.870612-157.665773 222.302093-273.865543 0.221574-1.487712 0.316534-3.070383 0.316535-4.684709V112.070325h57.73587c22.980396 0 41.624271-18.548914 41.624271-41.655924 0-23.012049-18.548914-41.655924-41.624271-41.655924H99.237365c-22.980396 0-41.624271 18.548914-41.624271 41.655924 0 23.012049 18.548914 41.655924 41.624271 41.655924h54.317299v118.130629c0 1.582672 0.126614 3.165344 0.348188 4.684709 4.431481 116.19977 139.053552 217.332503 232.462846 273.960504-93.314334 56.628-227.809791 157.349239-232.367886 273.327434-0.221574 1.804246-0.443148 3.608492-0.443148 5.539352v107.495074H99.237365c-22.980396 0-41.624271 18.548914-41.624271 41.687578 0 22.980396 18.548914 41.655924 41.624271 41.655924h781.776604c22.980396 0 41.624271-18.548914 41.624271-41.655924 0-23.138663-18.643875-41.782538-41.624271-41.782538zM488.068193 377.800934c22.980396 0 41.624271 18.548914 41.624271 41.655924a41.592617 41.592617 0 1 1-83.248541 0 41.655924 41.655924 0 0 1 41.62427-41.655924z m-41.62427 222.333747a41.624271 41.624271 0 0 1 83.248541 0.09496v81.349335c0 23.012049-18.548914 41.655924-41.624271 41.655924a41.592617 41.592617 0 0 1-41.62427-41.655924v-81.444295z m245.282489 284.691019H284.378322a41.592617 41.592617 0 0 1-41.624271-41.687578c0-22.980396 18.548914-41.655924 41.624271-41.655924h407.34809a41.687577 41.687577 0 0 1 0 83.343502z" fill="#707070" p-id="6168"></path></svg>